# xmcd
# 
# Track frame offsets:
#     150
#     15900
#     31650
#     47400
#     63150
#     78900
#     94650
#     110400
#     126150
#     141900
#     157650
#     173400
#     189150
#     204900
#     220650
#     236400
#     252150
#     267900
#     283650
#     299400
#     315150
#     330900
# 
# Disc length: 4622
# 
# Revision: 3
# Processed by: cddbd v1.5.2PL0 Copyright (c) Steve Scherf et al.
# Submitted via: BonkEnc v1.0.15
# 
DISCID=0e120c16
DTITLE=Various Artist - Varios
DYEAR=2004
DGENRE=Country
TTITLE0=Varios - Pista1
TTITLE1=Varios - Pista2
TTITLE2=Varios - Pista3
TTITLE3=Varios - Pista4
TTITLE4=Varios - Pista5
TTITLE5=Varios - Pista6
TTITLE6=Varios - Pista7
TTITLE7=Varios - Pista8
TTITLE8=Varios - Pista9
TTITLE9=Varios - Pista10
TTITLE10=Varios - Pista11
TTITLE11=Varios - Pista12
TTITLE12=Varios - Pista13
TTITLE13=Varios - Pista14
TTITLE14=Varios - Pista15
TTITLE15=Varios - Pista16
TTITLE16=Varios - Pista17
TTITLE17=Varios - Pista18
TTITLE18=Varios - Pista19
TTITLE19=Varios - Pista20
TTITLE20=Varios - Pista21
TTITLE21=Varios - Pista22
EXTD=
EXTT0=Margarita Madness Remix
EXTT1=Margarita Madness Remix
EXTT2=Margarita Madness Remix
EXTT3=Margarita Madness Remix
EXTT4=Margarita Madness Remix
EXTT5=Margarita Madness Remix
EXTT6=Margarita Madness Remix
EXTT7=Margarita Madness Remix
EXTT8=Margarita Madness Remix
EXTT9=Margarita Madness Remix
EXTT10=Margarita Madness Remix
EXTT11=Margarita Madness Remix
EXTT12=Margarita Madness Remix
EXTT13=Margarita Madness Remix
EXTT14=Margarita Madness Remix
EXTT15=Margarita Madness Remix
EXTT16=Margarita Madness Remix
EXTT17=Margarita Madness Remix
EXTT18=Margarita Madness Remix
EXTT19=Margarita Madness Remix
EXTT20=Margarita Madness Remix
EXTT21=Margarita Madness Remix
PLAYORDER=
